<svg id="Capa_1" enable-background="new 0 0 512.109 512.109" height="512" viewBox="0 0 512.109 512.109" width="512" xmlns="http://www.w3.org/2000/svg"><g><g><g><path d="m341.085 83.958c0 46.285-37.74 83.947-84.13 83.947s-84.13-37.662-84.13-83.947c0-46.296 37.74-83.958 84.13-83.958s84.13 37.662 84.13 83.958z" fill="#00c2f3"/><path d="m312.595 280.082-55.64 55.489-.04.04-55.6-55.459 21.2-21.214 19.4 19.356v-76.694h30v76.694l19.48-19.426z" fill="#56788b"/><path d="m128.97 185.871-38.459 66.448-7.103-26.443-28.974 7.772 20.36 75.797 76.044-20.324-7.752-28.96-26.567 7.101 38.42-66.383z" fill="#56788b"/><path d="m363.071 289.121 76.043 20.324 20.362-75.797-28.975-7.772-7.103 26.444-38.459-66.449-25.968 15.008 38.42 66.383-26.569-7.101z" fill="#304b59"/></g><g><path d="m182.485 364.929h147.18v147.071h-147.18z" fill="#09eaa3"/><path d="m256.955 364.929h72.71v147.071h-72.71z" fill="#14bb87"/></g><path d="m291.395 258.868 21.2 21.214-55.64 55.489v-133.971h14.96v76.694z" fill="#304b59"/><path d="m341.085 83.958c0 46.285-37.74 83.947-84.13 83.947v-167.905c46.39 0 84.13 37.662 84.13 83.958z" fill="#1e90ff"/></g><g><path d="m73.205 512.109h-73.15v-73.59c.24-40.62 33.35-73.59 74.02-73.59h73.16v73.59c-.23 40.62-33.35 73.59-74.03 73.59z" fill="#fbdf63"/><path d="m73.205 512.109h-73.15l147.18-147.18v73.59c-.23 40.62-33.35 73.59-74.03 73.59z" fill="#f7b521"/></g><g><path d="m512.055 438.85v73.15h-73.59c-40.62-.24-73.59-33.35-73.59-74.02v-73.16h73.59c40.62.23 73.59 33.35 73.59 74.03z" fill="#ff6b81"/><path d="m512.055 438.85v73.15l-147.18-147.18h73.59c40.62.23 73.59 33.35 73.59 74.03z" fill="#ed2061"/></g></g></svg>