<svg height="512" viewBox="0 0 64 64" width="512" xmlns="http://www.w3.org/2000/svg"><g id="flat"><path d="m46 29 2 11-1 7 2 8 6 6h-23l-4-4 14-28a2 2 0 0 1 2-2 2.192 2.192 0 0 1 2 2z" fill="#ffd782"/><path d="m38 57h-20l-4-4v-46a4 4 0 0 1 4-4h20a4 4 0 0 1 4 4v46z" fill="#394d5c"/><path d="m37 6h2v2h-2z" fill="#f4f4e6"/><path d="m14 49h28a0 0 0 0 1 0 0v4a4 4 0 0 1 -4 4h-20a4 4 0 0 1 -4-4v-4a0 0 0 0 1 0 0z" fill="#edecce"/><path d="m26 52h4v2h-4z" fill="#394d5c"/><g fill="#e4544f"><path d="m23 44h2v2h-2z"/><path d="m27 44h2v2h-2z"/><path d="m31 44h2v2h-2z"/></g><path d="m22 3h12v4h-12z" fill="#edecce"/><rect fill="#f9bb4b" height="11.314" rx="2.828" transform="matrix(.707 -.707 .707 .707 -28.79 22.837)" width="5.657" x="10.343" y="40.515"/><rect fill="#ffd782" height="11.314" rx="2.828" transform="matrix(.707 -.707 .707 .707 -23.767 20.621)" width="5.657" x="10.18" y="33.343"/><path d="m13.968 20.971.032.029v8l-4.016-4.013a2.878 2.878 0 0 1 1.134-4.735 2.748 2.748 0 0 1 2.85.719z" fill="#ffd782"/><path d="m23 12h2v2h-2z" fill="#e4544f"/><path d="m27 12h2v2h-2z" fill="#e4544f"/><path d="m31 12h2v2h-2z" fill="#e4544f"/><path d="m20 21h6v6h-6z" fill="#e33e5c"/><path d="m30 21h6v6h-6z" fill="#f98c96"/><path d="m20 31h6v6h-6z" fill="#f98c96"/><path d="m30 31h6v6h-6z" fill="#e33e5c"/><rect fill="#f9bb4b" height="11.314" rx="2.828" transform="matrix(.707 -.707 .707 .707 -19.368 21.284)" width="5.657" x="13.18" y="28.364"/></g></svg>