<svg id="color" enable-background="new 0 0 24 24" height="512" viewBox="0 0 24 24" width="512" xmlns="http://www.w3.org/2000/svg"><path d="m21.25 1h-11.5c-.965 0-1.75.785-1.75 1.75v6.5c0 .965.785 1.75 1.75 1.75h11.5c.965 0 1.75-.785 1.75-1.75v-6.5c0-.965-.785-1.75-1.75-1.75z" fill="#4caf50"/><path d="m15.5 4c-1.103 0-2 .898-2 2s.897 2 2 2 2-.897 2-2-.897-2-2-2z" fill="#fafafa"/><path d="m15.5 1h-5.75c-.965 0-1.75.785-1.75 1.75v6.5c0 .965.785 1.75 1.75 1.75h5.75v-3c-1.103 0-2-.897-2-2s.897-2 2-2z" fill="#429846"/><path d="m15.5 4c-1.103 0-2 .898-2 2s.897 2 2 2z" fill="#dadada"/><path d="m22 17.5c-2 0-6 2.531-8 2.531s-4.25-1.531-4.25-1.531 2.694.5 4.25.5 2-.531 2-1.25c0-1.75-2.972-2.022-4.476-2.251-1.476-.822-3.037-1.333-5.482-1.539-.014.142-.037.284-.077.425l-2.009 7.08c2.276 1.035 6.988 2.535 9.044 2.535 3 0 11-4 11-5s-1-1.5-2-1.5z" fill="#ffcc80"/><g><path d="m3.5 22h-2.75c-.414 0-.75-.336-.75-.75v-8.5c0-.414.336-.75.75-.75 3.505 0 5.138 1.216 5.205 1.268.242.185.349.498.269.792l-2 7.386c-.089.327-.385.554-.724.554z" fill="#607d8b"/></g><path d="m11.25 6.75h-.5c-.414 0-.75-.336-.75-.75s.336-.75.75-.75h.5c.414 0 .75.336.75.75s-.336.75-.75.75z" fill="#388e3c"/><path d="m11 5.25h-.25c-.414 0-.75.336-.75.75s.336.75.75.75h.25z" fill="#317c34"/><path d="m20.25 6.75h-.5c-.414 0-.75-.336-.75-.75s.336-.75.75-.75h.5c.414 0 .75.336.75.75s-.336.75-.75.75z" fill="#388e3c"/><path d="m19.979 5.25h-.229c-.414 0-.75.336-.75.75s.336.75.75.75h.229z" fill="#317c34"/><path d="m15.778 17h-10.349l-1.204 4.445c-.011.042-.026.082-.044.12 2.348 1.029 6.828 2.435 8.819 2.435 3 0 11-4 11-5s-1-1.5-2-1.5c-2 0-6 2.531-8 2.531s-4.25-1.531-4.25-1.531 2.693.5 4.25.5 2-.531 2-1.25c0-.288-.08-.536-.222-.75z" fill="#deb26f"/><path d="m5.429 17h-5.429v4.25c0 .414.336.75.75.75h2.75c.296 0 .559-.172.681-.434.018-.038.032-.078.044-.12z" fill="#546d79"/></svg>