<svg id="Flat" height="512" viewBox="0 0 512 512" width="512" xmlns="http://www.w3.org/2000/svg"><circle cx="208" cy="168" fill="#eb423f" r="144"/><path d="m208 280a112 112 0 1 1 112-112 112.127 112.127 0 0 1 -112 112zm0-208a96 96 0 1 0 96 96 96.108 96.108 0 0 0 -96-96z" fill="#d0d2d4"/><path d="m208 240a72 72 0 1 1 72-72 72.081 72.081 0 0 1 -72 72zm0-128a56 56 0 1 0 56 56 56.063 56.063 0 0 0 -56-56z" fill="#d0d2d4"/><path d="m160 232h208v256h-208z" fill="#e9eef2"/><g fill="#d0d2d4"><path d="m208 184a16 16 0 1 1 16-16 16.019 16.019 0 0 1 -16 16z"/><path d="m192 392h120v64h-120z"/><path d="m304 272h-104a8 8 0 0 1 0-16h104a8 8 0 0 1 0 16z"/><path d="m304 304h-104a8 8 0 0 1 0-16h104a8 8 0 0 1 0 16z"/><path d="m304 336h-104a8 8 0 0 1 0-16h104a8 8 0 0 1 0 16z"/><path d="m304 368h-104a8 8 0 0 1 0-16h104a8 8 0 0 1 0 16z"/></g><path d="m104 256-80 24v72l32-40z" fill="#ffb632"/><path d="m24 352h72l24-80z" fill="#ffb632"/><path d="m176 208a8 8 0 0 1 -5.657-13.657l32-32a8 8 0 0 1 11.314 11.314l-32 32a7.974 7.974 0 0 1 -5.657 2.343z" fill="#ffb632"/><path d="m184 192v24l-56 56-104 80 80-104 56-56z" fill="#ffd33a"/><path d="m280 448h208v40h-208z" fill="#7e8589"/><path d="m296 416h176v32h-176z" fill="#6a7073"/><path d="m456 416s-32-30-32-112v-80h-80v80c0 80-32 112-32 112z" fill="#7e8589"/><path d="m320 192h128v32h-128z" fill="#6a7073"/><path d="m464 136v56h-160v-56h32v24h32v-24h32v24h32v-24z" fill="#7e8589"/></svg>